HIERARCHY
ROOT root
{
	OFFSET 0.000000 0.000000 0.000000
	CHANNELS 6 Xposition Yposition Zposition Zrotation Yrotation Xrotation
	JOINT lhip
	{
		OFFSET 0.058581 -0.082280 -0.017664
		CHANNELS 3 Zrotation Yrotation Xrotation
		JOINT lknee
		{
			OFFSET 0.043451 -0.386469 0.008037
			CHANNELS 3 Zrotation Yrotation Xrotation
			JOINT lankle
			{
				OFFSET -0.014790 -0.426874 -0.037428
				CHANNELS 3 Zrotation Yrotation Xrotation
				JOINT ltoe
				{
					OFFSET 0.041054 -0.060286 0.122042
					CHANNELS 3 Zrotation Yrotation Xrotation
					End Site
					{
						OFFSET 0.000000 0.000000 0.000000
					}
				}
			}
		}
	}
	JOINT rhip
	{
		OFFSET -0.060310 -0.090513 -0.013543
		CHANNELS 3 Zrotation Yrotation Xrotation
		JOINT rknee
		{
			OFFSET -0.043257 -0.383688 -0.004843
			CHANNELS 3 Zrotation Yrotation Xrotation
			JOINT rankle
			{
				OFFSET 0.019056 -0.420046 -0.034562
				CHANNELS 3 Zrotation Yrotation Xrotation
				JOINT rtoe
				{
					OFFSET -0.034840 -0.062106 0.130323
					CHANNELS 3 Zrotation Yrotation Xrotation
					End Site
					{
						OFFSET 0.000000 0.000000 0.000000
					}
				}
			}
		}
	}
	JOINT lowerback
	{
		OFFSET 0.004439 0.124404 -0.038385
		CHANNELS 3 Zrotation Yrotation Xrotation
		JOINT upperback
		{
			OFFSET 0.004488 0.137956 0.026820
			CHANNELS 3 Zrotation Yrotation Xrotation
			JOINT chest
			{
				OFFSET -0.002265 0.056032 0.002855
				CHANNELS 3 Zrotation Yrotation Xrotation
				JOINT lowerneck
				{
					OFFSET -0.013390 0.211636 -0.033468
					CHANNELS 3 Zrotation Yrotation Xrotation
					JOINT upperneck
					{
						OFFSET 0.010113 0.088937 0.050410
						CHANNELS 3 Zrotation Yrotation Xrotation
						End Site
						{
							OFFSET 0.000000 0.000000 0.000000
						}
					}
				}
				JOINT lclavicle
				{
					OFFSET 0.071702 0.114000 -0.018898
					CHANNELS 3 Zrotation Yrotation Xrotation
					JOINT lshoulder
					{
						OFFSET 0.122921 0.045205 -0.019046
						CHANNELS 3 Zrotation Yrotation Xrotation
						JOINT lelbow
						{
							OFFSET 0.255332 -0.015649 -0.022946
							CHANNELS 3 Zrotation Yrotation Xrotation
							JOINT lwrist
							{
								OFFSET 0.265709 0.012698 -0.007375
								CHANNELS 3 Zrotation Yrotation Xrotation
								End Site
								{
									OFFSET 0.000000 0.000000 0.000000
								}
							}
						}
					}
				}
				JOINT rclavicle
				{
					OFFSET -0.082954 0.112472 -0.023707
					CHANNELS 3 Zrotation Yrotation Xrotation
					JOINT rshoulder
					{
						OFFSET -0.113228 0.046853 -0.008472
						CHANNELS 3 Zrotation Yrotation Xrotation
						JOINT relbow
						{
							OFFSET -0.260127 -0.014369 -0.031269
							CHANNELS 3 Zrotation Yrotation Xrotation
							JOINT rwrist
							{
								OFFSET -0.269108 0.006794 -0.006027
								CHANNELS 3 Zrotation Yrotation Xrotation
								End Site
								{
									OFFSET 0.000000 0.000000 0.000000
								}
							}
						}
					}
				}
			}
		}
	}
}
MOTION
Frames: 12
Frame Time: 0.033333
1.756708 0.724456 0.993001 -88.036902 3.025820 85.654036 2.224406 0.520079 6.963051 -2.273535 -14.463551 2.475799 3.968598 9.531874 -16.040780 0.000000 -0.000000 0.000000 3.148614 -3.156307 5.178923 3.543236 -0.041514 6.516439 3.638725 -6.749749 -12.458309 0.000000 -0.000000 0.000000 -1.598747 2.663682 5.324016 2.270500 -1.271210 2.467208 0.488955 -2.492322 6.048271 4.842782 -3.973900 13.754441 1.427869 -7.115645 14.871089 -26.614106 9.523425 3.853212 -59.051000 -5.060761 4.907701 10.783479 -15.258376 2.079257 -4.751472 2.330141 -6.087410 24.814020 -8.156668 -0.362791 61.154154 0.162516 8.963735 -16.053088 18.252176 -5.711767 7.114196 -1.667688 -6.864364 
1.756223 0.724441 0.992841 -88.206817 3.022048 85.747263 2.236089 0.406266 6.920122 -2.350079 -14.307213 2.441677 3.984013 9.646850 -15.997694 0.000000 -0.000000 0.000000 3.122573 -3.327537 5.074301 3.527549 0.241817 6.522638 3.649345 -6.650784 -12.472191 0.000000 -0.000000 0.000000 -1.672502 2.754406 5.210749 2.281165 -1.298231 2.486214 0.512289 -2.471382 6.146044 4.925868 -3.679500 13.935140 1.590863 -6.640403 14.536412 -26.426937 9.756630 3.964625 -59.191681 -4.650445 4.787198 10.410625 -13.450193 2.462924 -5.054301 2.271071 -5.804988 24.762805 -8.472810 -0.330271 61.282129 -0.048809 8.777201 -15.588727 16.783118 -5.609284 7.427376 -1.790657 -7.226676 
1.756188 0.724131 0.992731 -88.220198 3.062171 85.874222 2.216052 0.435986 6.673316 -2.292879 -14.167571 2.599283 3.912422 9.558392 -16.067344 0.000000 -0.000000 0.000000 3.184651 -3.324654 4.767305 3.496319 0.159407 6.764340 3.608067 -6.496320 -12.522613 0.000000 -0.000000 0.000000 -1.591338 2.711060 5.329839 2.292920 -1.233073 2.198318 0.511934 -2.484119 6.194373 4.967556 -3.856837 13.836950 1.357038 -6.735995 14.471710 -26.607693 10.437098 4.016784 -59.293376 -4.160050 4.688553 10.572326 -13.071090 2.536171 -5.175022 2.201425 -5.417892 24.878628 -8.946086 -0.276292 61.176639 -0.369024 8.621594 -15.510877 15.876791 -5.470971 7.126369 -1.783182 -6.609862 
1.755492 0.723937 0.992859 -88.185207 3.098510 85.785513 2.226703 0.296054 6.828556 -2.300286 -14.186241 2.622653 3.949704 9.669738 -16.103697 0.000000 -0.000000 0.000000 3.216244 -3.396876 4.951508 3.529027 0.233364 6.697159 3.548576 -6.547945 -12.677446 0.000000 -0.000000 0.000000 -1.557431 2.670896 5.415761 2.344450 -1.230804 2.278482 0.521924 -2.455216 6.196460 5.084215 -4.138964 13.638715 1.450231 -6.950726 14.065231 -26.701283 10.899787 4.147780 -59.365720 -3.649587 4.742054 10.671408 -13.905850 2.927880 -5.707611 2.600530 -5.547672 24.791029 -9.133254 -0.321518 61.475335 -0.859773 8.499991 -15.508335 15.727039 -5.751072 7.731018 -2.025891 -7.339535 
1.755248 0.723627 0.992992 -88.155985 3.093952 85.666768 2.227887 0.281877 7.006582 -2.337219 -14.262672 2.576779 3.942730 9.638834 -16.193154 0.000000 -0.000000 0.000000 3.177559 -3.471426 5.143059 3.542335 0.204937 6.644442 3.532028 -6.560968 -12.707245 0.000000 -0.000000 0.000000 -1.516915 2.614320 5.517223 2.337576 -1.261417 2.347299 0.504696 -2.463269 6.197856 5.075012 -4.248646 13.668257 1.390704 -6.980301 14.040463 -26.713239 11.070475 4.226261 -59.471045 -3.531210 4.773021 10.736308 -14.515275 2.971412 -5.656581 2.402596 -5.931136 24.857284 -9.148622 -0.232733 61.487620 -0.869443 8.420060 -15.600875 15.798912 -5.869917 7.694312 -1.957678 -7.403000 
1.755194 0.723668 0.993041 -88.117935 3.093213 85.646748 2.227920 0.303234 7.001036 -2.318141 -14.217484 2.645698 3.974139 9.592989 -16.267232 0.000000 -0.000000 0.000000 3.136627 -3.536213 5.133892 3.618888 0.180626 6.780534 3.556714 -6.539845 -12.724617 0.000000 -0.000000 0.000000 -1.512301 2.559916 5.536663 2.318838 -1.295126 2.366155 0.511660 -2.465346 6.243294 5.148908 -4.273586 13.452484 1.599821 -6.959705 13.887440 -26.779210 11.126442 4.195073 -59.539621 -3.541326 4.820381 10.703559 -15.445294 2.855602 -5.251912 2.331115 -6.109155 24.862268 -9.262131 -0.267902 61.530465 -0.945977 8.386902 -15.469744 16.500523 -5.957290 7.507330 -1.979447 -7.469896 
1.755378 0.723862 0.993007 -88.077280 3.107795 85.607822 2.259432 0.375812 7.003724 -2.285932 -14.322618 2.689510 3.888053 9.479896 -16.293653 0.000000 -0.000000 0.000000 3.234232 -3.401209 5.165410 3.514821 0.057545 6.839812 3.617230 -6.512311 -12.760037 0.000000 -0.000000 0.000000 -1.475083 2.414814 5.614740 2.311132 -1.348434 2.472956 0.485877 -2.456176 6.215660 5.180448 -4.054180 13.187963 1.420770 -6.753887 13.905646 -26.766225 11.180037 4.054334 -59.761593 -3.724491 5.001241 10.818127 -16.734936 2.883462 -5.063267 2.098840 -6.366858 24.807511 -9.200128 -0.333979 61.723757 -0.772958 8.501990 -15.548963 17.273070 -6.150098 7.376851 -1.849503 -7.765241 
1.755801 0.723926 0.993124 -87.990066 3.110841 85.665324 2.242715 0.282961 6.849185 -2.253248 -14.214437 2.799612 3.835688 9.381338 -16.268099 0.000000 -0.000000 0.000000 3.260955 -3.398648 5.070235 3.466272 -0.110515 6.897353 3.633306 -6.457909 -12.832557 0.000000 -0.000000 0.000000 -1.421216 2.346292 5.635860 2.301107 -1.395269 2.484466 0.499594 -2.502038 6.331755 5.251958 -3.924263 12.512097 1.588333 -6.806006 13.544956 -26.744324 11.107196 3.717981 -60.068884 -4.174520 5.256589 10.924702 -18.085918 2.728366 -4.785900 1.942357 -6.713870 24.884848 -9.094911 -0.640345 61.657228 -0.544949 8.676505 -15.518705 18.038084 -6.279588 7.249272 -1.599801 -7.818603 
1.755744 0.724336 0.993043 -87.874533 3.133123 85.647040 2.273422 0.348093 6.886996 -2.156650 -14.313126 2.767238 3.763873 9.219236 -16.312052 0.000000 -0.000000 0.000000 3.340742 -3.378519 5.109346 3.429411 -0.186747 6.906775 3.719619 -6.517100 -12.845620 0.000000 -0.000000 0.000000 -1.478542 2.292288 5.647113 2.336323 -1.414418 2.598279 0.585058 -2.521277 6.375545 5.333171 -3.690282 12.083945 1.594090 -6.614027 13.368389 -26.744781 10.782448 3.608940 -60.183922 -4.668711 5.556825 10.928837 -19.905455 2.683451 -4.439034 1.814228 -6.910554 24.888918 -8.964578 -0.799042 61.648236 -0.224661 8.734194 -15.572170 19.060915 -6.579934 7.143941 -1.477666 -7.952010 
1.755965 0.724612 0.993053 -87.893808 3.118240 85.718666 2.244190 0.194576 6.777437 -2.122656 -14.157433 2.800163 3.681290 9.184911 -16.296156 0.000000 -0.000000 0.000000 3.364389 -3.203066 4.996600 3.408968 -0.397340 6.934013 3.763712 -6.398677 -12.834929 0.000000 -0.000000 0.000000 -1.458337 2.299815 5.765088 2.345814 -1.425868 2.416582 0.639196 -2.538931 6.239944 5.241854 -3.544304 11.745081 1.666331 -6.599186 13.320576 -26.440795 10.322297 3.407337 -60.404251 -5.346939 6.072018 10.615081 -21.961430 2.814775 -3.901607 1.326667 -7.425825 24.632935 -8.574762 -0.865387 61.776443 0.174138 8.825916 -15.636928 19.971468 -6.807089 6.912917 -1.193199 -8.320393 
1.755642 0.724955 0.992985 -87.769756 3.163498 85.796488 2.348819 0.238560 6.690677 -2.120431 -14.154008 2.825593 3.684614 8.990840 -16.357105 0.000000 -0.000000 0.000000 3.425546 -3.381880 5.049740 3.377840 -0.543286 6.773180 3.754054 -6.220104 -12.911154 0.000000 -0.000000 0.000000 -1.377310 2.271357 5.649244 2.356305 -1.476064 2.442038 0.661990 -2.509259 6.192478 5.119100 -3.541675 11.624434 1.614317 -6.563551 13.191817 -26.283353 10.027692 3.400495 -60.662576 -5.938873 6.390905 11.010996 -24.326636 2.737239 -3.788164 1.002936 -7.893634 24.428721 -8.239977 -0.807527 61.954728 0.351705 8.857019 -15.985681 21.011223 -6.851862 6.957306 -1.218721 -8.464886 
1.755389 0.725023 0.993230 -87.616891 3.184103 85.738562 2.332258 0.071871 6.786209 -2.003447 -14.068128 2.792398 3.639803 8.867305 -16.294823 0.000000 -0.000000 0.000000 3.436183 -3.545804 5.205722 3.369786 -0.642430 6.692916 3.731180 -6.144448 -12.911191 0.000000 -0.000000 0.000000 -1.310891 2.232982 5.766025 2.372348 -1.505197 2.496020 0.702346 -2.483861 6.048153 5.132616 -3.537653 11.118951 1.730190 -6.634617 13.114026 -26.097426 9.692050 3.287443 -60.847236 -6.470314 6.818640 11.348969 -26.793126 2.859883 -3.279497 0.896772 -8.101783 24.322273 -7.986192 -0.954155 61.886915 0.507311 8.795654 -16.141173 21.949154 -7.093625 6.783697 -1.021338 -8.476448 
